<?xml version="1.0" encoding="utf-8"?>
<!-- Generator: Adobe Illustrator 25.2.1, SVG Export Plug-In . SVG Version: 6.00 Build 0)  -->
<svg  width="200" height="50" version="1.1" id="Layer_1" xmlns="http://www.w3.org/2000/svg" xmlns:xlink="http://www.w3.org/1999/xlink" x="0px" y="0px"
	 viewBox="0 0 200 50" style="enable-background:new 0 0 200 50;" xml:space="preserve">
<style type="text/css">
	.st0{fill:#FFFFFF;}
</style>
<polygon class="st0" points="53,19.8 49.2,26.4 49.2,26.4 47.3,29.7 47.3,29.7 45.4,33 45.4,33 45.4,33 43.5,36.3 43.5,36.3 
	41.6,39.6 39.7,42.9 37.7,39.6 39.7,36.3 39.7,36.3 41.6,33 41.6,33 41.6,33 43.5,29.7 43.5,29.7 45.4,26.4 45.4,26.4 45.4,26.4 
	47.3,23.1 43.5,23.1 41.6,26.4 41.6,26.4 39.7,29.7 39.6,29.7 39.7,29.7 37.7,33 37.7,33 35.8,36.3 35.8,36.3 33.9,33 33.9,33 
	35.8,29.7 35.8,29.7 37.7,26.4 37.7,26.4 39.7,23.1 39.7,23.1 35.8,23.1 35.8,23.1 33.9,26.4 32,29.7 32,29.7 30.1,26.4 32,23.1 
	32,23.1 33.9,19.8 37.7,19.8 41.6,19.8 "/>
<polygon class="st0" points="56.8,13.2 54.9,16.5 43.5,16.5 39.7,16.5 32,16.5 32,16.5 28.2,23.1 28.2,23.1 26.3,19.8 26.3,19.8 
	28.2,16.5 28.2,16.5 24.4,16.5 22.5,13.2 "/>
<path class="st0" d="M59.9,29.9v-9.5h1.3l3.9,6.2h-0.7l3.9-6.2h1.3v9.5h-1.8v-6.4l0.4,0.1l-2.7,4.3h-1.3l-2.7-4.3l0.4-0.1v6.4
	L59.9,29.9z"/>
<path class="st0" d="M71.3,29.9l3.9-9.5h1.5l3.8,9.5h-2l-3-7.8h0.7l-3,7.8H71.3z M73.3,28.1v-1.5h5.1v1.5H73.3z"/>
<path class="st0" d="M82.1,29.9v-9.5H84v9.5H82.1z M83.5,25.9v-1.5h2.2c0.4,0,0.8-0.1,1.1-0.3c0.3-0.2,0.4-0.6,0.4-0.9
	c0-0.4-0.1-0.7-0.4-0.9c-0.3-0.3-0.7-0.4-1-0.4h-2.2v-1.5h2.4c0.6,0,1.1,0.1,1.6,0.4c1.4,0.7,1.9,2.4,1.1,3.8c0,0,0,0.1-0.1,0.1
	c-0.3,0.4-0.6,0.8-1.1,1c-0.5,0.2-1.1,0.4-1.6,0.4L83.5,25.9z M87.3,29.9l-3.2-4.1l1.7-0.5l3.7,4.7L87.3,29.9z"/>
<path class="st0" d="M91.1,29.9v-9.5H93v9.5H91.1z"/>
<path class="st0" d="M95.5,29.9v-9.5h1.3l0.6,1.9v7.7L95.5,29.9z M102.1,29.9l-5.7-7.3l0.4-2.2l5.7,7.3L102.1,29.9z M102.1,29.9
	l-0.5-1.8v-7.7h1.8v9.5H102.1z"/>
<path class="st0" d="M110.3,30c-0.7,0-1.3-0.1-1.9-0.4c-1.8-0.8-3-2.6-3-4.6c0-0.7,0.1-1.3,0.4-1.9c0.2-0.6,0.6-1.1,1.1-1.6
	c0.4-0.5,1-0.8,1.6-1c1.3-0.5,2.6-0.5,3.9,0c0.6,0.2,1.1,0.6,1.6,1c0.4,0.5,0.8,1,1.1,1.6c0.5,1.2,0.5,2.6,0,3.9
	c-0.2,0.6-0.6,1.1-1,1.6c-0.4,0.5-1,0.8-1.6,1.1C111.7,29.9,111,30,110.3,30z M110.3,28.3c0.6,0,1.1-0.1,1.6-0.4
	c0.5-0.3,0.8-0.7,1.1-1.1c0.3-0.5,0.4-1.1,0.4-1.7c0-0.4-0.1-0.9-0.2-1.3c-0.1-0.4-0.3-0.7-0.6-1c-0.3-0.3-0.6-0.5-1-0.7
	c-0.4-0.2-0.8-0.2-1.2-0.2c-0.6,0-1.1,0.1-1.6,0.4c-0.5,0.3-0.8,0.7-1.1,1.1c-0.3,0.5-0.4,1.1-0.4,1.7c0,0.4,0.1,0.9,0.2,1.3
	c0.1,0.4,0.3,0.7,0.6,1c0.3,0.3,0.6,0.5,1,0.7C109.5,28.3,109.9,28.3,110.3,28.3z"/>
<path class="st0" d="M119.6,22v-1.6h7.9V22H119.6z M122.6,29.9v-9.3h1.9v9.3H122.6z"/>
<path class="st0" d="M133.2,30c-0.7,0-1.3-0.1-1.9-0.4c-2.5-1.1-3.7-4-2.6-6.5c0.2-0.6,0.6-1.1,1.1-1.6c0.4-0.5,1-0.8,1.6-1
	c1.3-0.5,2.6-0.5,3.9,0c0.6,0.2,1.1,0.6,1.6,1c0.4,0.5,0.8,1,1.1,1.6c0.5,1.2,0.5,2.6,0,3.9c-0.2,0.6-0.6,1.1-1,1.6
	c-0.4,0.5-1,0.8-1.6,1.1C134.5,29.9,133.9,30,133.2,30z M133.2,28.3c0.6,0,1.1-0.1,1.6-0.4c0.5-0.3,0.8-0.7,1.1-1.1
	c0.3-0.5,0.4-1.1,0.4-1.7c0-0.4-0.1-0.9-0.2-1.3c-0.1-0.4-0.3-0.7-0.6-1c-0.3-0.3-0.6-0.5-1-0.7c-0.4-0.2-0.8-0.2-1.2-0.2
	c-0.6,0-1.1,0.1-1.6,0.4c-0.5,0.3-0.8,0.7-1.1,1.1c-0.3,0.5-0.4,1.1-0.4,1.7c0,0.4,0.1,0.9,0.2,1.3c0.1,0.4,0.3,0.7,0.6,1
	c0.3,0.3,0.6,0.5,1,0.7C132.4,28.3,132.8,28.3,133.2,28.3z"/>
<path class="st0" d="M140.1,29.9v-9.5h1.8v9.5H140.1z M141.4,29.9v-1.6h2.4c0.6,0,1.1-0.1,1.6-0.4c0.5-0.3,0.8-0.6,1.1-1.1
	c0.3-0.5,0.4-1.1,0.4-1.7c0-0.6-0.1-1.1-0.4-1.6c-0.3-0.5-0.6-0.8-1.1-1.1c-0.5-0.3-1-0.4-1.6-0.4h-2.5v-1.6h2.5
	c0.7,0,1.3,0.1,2,0.4c0.6,0.2,1.1,0.6,1.6,1c0.4,0.4,0.8,0.9,1,1.5c0.2,0.6,0.4,1.2,0.4,1.9c0,0.7-0.1,1.3-0.4,1.9
	c-0.2,0.6-0.6,1.1-1,1.5c-0.5,0.4-1,0.8-1.6,1c-0.6,0.2-1.3,0.4-1.9,0.4L141.4,29.9z"/>
<path class="st0" d="M150.8,29.9v-9.5h1.8v9.5H150.8z"/>
<path class="st0" d="M157.7,30c-0.7,0-1.3-0.1-2-0.4c-0.6-0.3-1.1-0.7-1.5-1.2l1.2-1.2c0.3,0.4,0.6,0.6,1,0.9
	c0.4,0.2,0.9,0.3,1.4,0.3c0.4,0,0.8-0.1,1.1-0.3c0.3-0.2,0.4-0.5,0.4-0.8c0-0.3-0.1-0.5-0.2-0.7c-0.2-0.2-0.4-0.3-0.6-0.5
	c-0.3-0.1-0.6-0.2-0.9-0.3c-0.3-0.1-0.6-0.2-1-0.4c-0.3-0.1-0.6-0.3-0.9-0.5c-0.3-0.2-0.5-0.5-0.6-0.8c-0.2-0.4-0.3-0.8-0.2-1.2
	c0-0.5,0.1-1,0.4-1.5c0.3-0.4,0.7-0.7,1.2-0.9c0.5-0.2,1.1-0.3,1.7-0.3c0.6,0,1.2,0.1,1.8,0.4c0.5,0.2,0.9,0.5,1.3,0.9l-1.2,1.2
	c-0.2-0.3-0.5-0.5-0.9-0.7c-0.3-0.1-0.7-0.2-1-0.2c-0.4,0-0.7,0.1-1,0.3c-0.2,0.2-0.4,0.4-0.4,0.7c0,0.2,0.1,0.5,0.2,0.6
	c0.2,0.2,0.4,0.3,0.6,0.4c0.3,0.1,0.6,0.2,0.9,0.3c0.3,0.1,0.6,0.2,1,0.4c0.3,0.1,0.6,0.3,0.9,0.5c0.3,0.2,0.5,0.5,0.6,0.8
	c0.2,0.4,0.3,0.8,0.2,1.3c0,0.9-0.3,1.6-0.9,2.1C159.7,29.8,158.8,30,157.7,30z"/>
<path class="st0" d="M167.7,30c-0.7,0-1.3-0.1-2-0.4c-0.6-0.2-1.1-0.6-1.6-1.1c-0.4-0.4-0.8-1-1-1.6c-0.5-1.2-0.5-2.6,0-3.9
	c0.2-0.6,0.6-1.1,1-1.6c0.4-0.4,1-0.8,1.6-1c0.6-0.3,1.3-0.4,1.9-0.4c0.7,0,1.4,0.1,2,0.4c0.6,0.2,1.1,0.6,1.5,1l-1.3,1.3
	c-0.3-0.3-0.6-0.5-1-0.7c-0.4-0.2-0.9-0.3-1.3-0.2c-0.4,0-0.8,0.1-1.2,0.2c-0.4,0.1-0.7,0.4-1,0.7c-0.3,0.3-0.5,0.6-0.6,1
	c-0.3,0.8-0.3,1.8,0,2.6c0.1,0.4,0.3,0.7,0.6,1c0.3,0.3,0.6,0.5,1,0.7c0.4,0.2,0.8,0.2,1.2,0.2c0.5,0,0.9-0.1,1.4-0.3
	c0.4-0.2,0.7-0.4,1-0.7l1.3,1.2c-0.5,0.4-1,0.8-1.6,1C169.1,29.9,168.4,30,167.7,30z"/>
<path class="st0" d="M177.2,30c-0.7,0-1.3-0.1-1.9-0.4c-1.8-0.8-3-2.6-3-4.6c0-0.7,0.1-1.3,0.4-1.9c0.2-0.6,0.6-1.1,1.1-1.6
	c0.4-0.5,1-0.8,1.6-1c1.3-0.5,2.6-0.5,3.9,0c0.6,0.2,1.1,0.6,1.6,1c0.4,0.5,0.8,1,1.1,1.6c0.5,1.2,0.5,2.6,0,3.9
	c-0.2,0.6-0.6,1.1-1,1.6c-0.4,0.5-1,0.8-1.6,1.1C178.6,29.9,177.9,30,177.2,30z M177.2,28.3c0.6,0,1.1-0.1,1.6-0.4
	c0.5-0.3,0.8-0.7,1.1-1.1c0.3-0.5,0.4-1.1,0.4-1.7c0-0.4-0.1-0.9-0.2-1.3c-0.1-0.4-0.3-0.7-0.6-1c-0.3-0.3-0.6-0.5-1-0.7
	c-0.4-0.2-0.8-0.2-1.2-0.2c-0.6,0-1.1,0.1-1.6,0.4c-0.5,0.3-0.8,0.7-1.1,1.1c-0.3,0.5-0.4,1.1-0.4,1.7c0,0.4,0.1,0.9,0.2,1.3
	c0.1,0.4,0.3,0.7,0.6,1c0.3,0.3,0.6,0.5,1,0.7C176.4,28.2,176.8,28.3,177.2,28.3z"/>
</svg>
