<svg width="200" height="50" id="Layer_1" data-name="Layer 1" xmlns="http://www.w3.org/2000/svg" viewBox="0 0 1088.26 295.01"><defs><style>.cls-1{fill:#333;}</style></defs><polygon class="cls-1" points="266.88 116.62 244.36 155.62 244.36 155.63 233.1 175.12 233.1 175.13 221.84 194.63 221.84 194.64 221.83 194.64 210.58 214.14 210.57 214.14 199.32 233.64 188.06 253.14 176.79 233.64 188.06 214.14 188.06 214.13 199.31 194.64 199.32 194.64 199.32 194.63 210.58 175.13 210.58 175.12 221.83 155.63 221.84 155.63 221.84 155.62 233.1 136.12 210.58 136.12 199.32 155.62 199.32 155.63 188.06 175.12 188.05 175.12 188.06 175.13 176.8 194.63 176.8 194.64 165.54 214.13 165.53 214.13 154.28 194.64 154.28 194.63 165.54 175.13 165.54 175.12 176.8 155.63 176.8 155.62 188.06 136.12 188.06 136.11 165.53 136.11 165.53 136.12 154.27 155.62 143.02 175.12 143.01 175.12 131.75 155.62 143.01 136.12 143.01 136.11 154.27 116.61 176.8 116.61 199.32 116.62 266.88 116.62"/><polygon class="cls-1" points="289.41 77.6 278.14 97.11 210.58 97.11 188.06 97.1 143.01 97.1 143.01 97.11 120.49 136.11 120.48 136.11 109.23 116.62 109.23 116.61 120.49 97.11 120.5 97.1 97.96 97.1 86.7 77.6 289.41 77.6"/><path class="cls-1" d="M307.63,176.34V120.1h7.68l22.8,36.48h-4.4l22.72-36.48h7.68v56.24H353.23V138.82l2.16.56-15.76,25.44h-7.52l-15.68-25.44,2.08-.56v37.52Z"/><path class="cls-1" d="M374.59,176.34l22.72-56.24h9l22.48,56.24h-11.6l-17.44-46.08h4l-17.6,46.08Zm12.08-10.48v-9.12h30.24v9.12Z"/><path class="cls-1" d="M438.59,176.34V120.1h10.88v56.24Zm8-23.44v-8.56h13a8.75,8.75,0,0,0,6.24-2,7.28,7.28,0,0,0,2.16-5.56,7.62,7.62,0,0,0-2.16-5.56,8.23,8.23,0,0,0-6.16-2.2h-13V120.1h14.08a20.49,20.49,0,0,1,9.48,2.12,16.47,16.47,0,0,1,6.4,22.88,15.68,15.68,0,0,1-6.44,5.72,21.33,21.33,0,0,1-9.68,2.08Zm22.72,23.44L450.67,152l10.08-3.12,21.76,27.44Z"/><path class="cls-1" d="M491.87,176.34V120.1h10.88v56.24Z"/><path class="cls-1" d="M517.47,176.34V120.1h7.6l3.28,11v45.28Zm38.88,0L523,133.22l2.08-13.12,33.44,43.12Zm0,0-3.12-10.56V120.1h10.88v56.24Z"/><path class="cls-1" d="M605.15,177.22A29.34,29.34,0,0,1,593.67,175a28.89,28.89,0,0,1-17.8-26.88,28.38,28.38,0,0,1,2.24-11.32,29.5,29.5,0,0,1,6.2-9.24,27.48,27.48,0,0,1,9.24-6.16,31.59,31.59,0,0,1,23,0,27.48,27.48,0,0,1,9.24,6.16,29.5,29.5,0,0,1,6.2,9.28,29.93,29.93,0,0,1,0,22.72,29.91,29.91,0,0,1-6.16,9.28,27.43,27.43,0,0,1-9.24,6.2A29.5,29.5,0,0,1,605.15,177.22ZM605,167.14a18.08,18.08,0,0,0,9.4-2.4,16.52,16.52,0,0,0,6.28-6.68,21.2,21.2,0,0,0,2.24-10,21.72,21.72,0,0,0-1.28-7.6,17.39,17.39,0,0,0-3.68-6,16.59,16.59,0,0,0-5.64-3.88A18.69,18.69,0,0,0,605,129.3a17.93,17.93,0,0,0-9.28,2.36,16.58,16.58,0,0,0-6.28,6.6,20.48,20.48,0,0,0-2.28,9.84,22.4,22.4,0,0,0,1.28,7.76,16.81,16.81,0,0,0,3.64,6,16.59,16.59,0,0,0,5.68,3.88A18.47,18.47,0,0,0,605,167.14Z"/><path class="cls-1" d="M659.55,129.78V120.1h46.8v9.68Zm17.92,46.56v-55h11v55Z"/><path class="cls-1" d="M740.11,177.22A29.34,29.34,0,0,1,728.63,175a29.32,29.32,0,0,1-15.56-38.2,29.5,29.5,0,0,1,6.2-9.24,27.48,27.48,0,0,1,9.24-6.16,31.59,31.59,0,0,1,23,0,27.48,27.48,0,0,1,9.24,6.16,29.33,29.33,0,0,1,6.2,9.28,29.93,29.93,0,0,1,0,22.72,29.73,29.73,0,0,1-6.16,9.28,27.43,27.43,0,0,1-9.24,6.2A29.5,29.5,0,0,1,740.11,177.22ZM740,167.14a18.06,18.06,0,0,0,9.4-2.4,16.52,16.52,0,0,0,6.28-6.68,21.2,21.2,0,0,0,2.24-10,21.72,21.72,0,0,0-1.28-7.6,17.39,17.39,0,0,0-3.68-6,16.59,16.59,0,0,0-5.64-3.88A18.69,18.69,0,0,0,740,129.3a18,18,0,0,0-9.28,2.36,16.58,16.58,0,0,0-6.28,6.6,20.48,20.48,0,0,0-2.28,9.84,22.64,22.64,0,0,0,1.28,7.76,17,17,0,0,0,3.64,6,16.68,16.68,0,0,0,5.68,3.88A18.5,18.5,0,0,0,740,167.14Z"/><path class="cls-1" d="M781,176.34V120.1h10.88v56.24Zm7.44,0v-9.68h14.32a19.27,19.27,0,0,0,9.48-2.28,16,16,0,0,0,6.4-6.48,20.24,20.24,0,0,0,2.28-9.8,19.17,19.17,0,0,0-2.32-9.6,16.81,16.81,0,0,0-6.4-6.4,18.74,18.74,0,0,0-9.44-2.32H788.19V120.1h14.72a31.74,31.74,0,0,1,11.6,2.08,27.61,27.61,0,0,1,9.28,5.88,26.84,26.84,0,0,1,6.08,8.92,28.52,28.52,0,0,1,2.16,11.2,28.83,28.83,0,0,1-2.16,11.24,26.7,26.7,0,0,1-6.08,9,27.74,27.74,0,0,1-9.24,5.88,31.22,31.22,0,0,1-11.48,2.08Z"/><path class="cls-1" d="M844,176.34V120.1h10.88v56.24Z"/><path class="cls-1" d="M884.67,177.22a26.46,26.46,0,0,1-11.56-2.32,26,26,0,0,1-8.76-7l7.2-7.2a19.09,19.09,0,0,0,5.8,5.08,16.18,16.18,0,0,0,8,1.8,11.85,11.85,0,0,0,6.72-1.68,5.32,5.32,0,0,0,2.48-4.64,6,6,0,0,0-1.44-4.16,11.4,11.4,0,0,0-3.8-2.68,48.35,48.35,0,0,0-5.2-2q-2.85-.91-5.64-2.12a23.93,23.93,0,0,1-5.2-3,13.15,13.15,0,0,1-3.8-4.64,16,16,0,0,1-1.4-7.2,15,15,0,0,1,2.48-8.72,15.85,15.85,0,0,1,6.8-5.52,23.78,23.78,0,0,1,9.76-1.92,24.62,24.62,0,0,1,10.44,2.16,21.35,21.35,0,0,1,7.56,5.6l-7.2,7.2a17.56,17.56,0,0,0-5.08-4,13.22,13.22,0,0,0-5.88-1.28,10.31,10.31,0,0,0-5.92,1.48,4.72,4.72,0,0,0-2.16,4.12,4.94,4.94,0,0,0,1.44,3.72,13.37,13.37,0,0,0,3.8,2.48,52.26,52.26,0,0,0,5.24,2q2.88,1,5.68,2.2a24.13,24.13,0,0,1,5.16,3.12,13.7,13.7,0,0,1,3.8,4.88,17,17,0,0,1,1.44,7.4q0,7.84-5.52,12.36T884.67,177.22Z"/><path class="cls-1" d="M943.79,177.22A29.25,29.25,0,0,1,932.27,175a28.83,28.83,0,0,1-9.24-6.2,27.82,27.82,0,0,1-6.12-9.24,31,31,0,0,1,0-22.72,27.55,27.55,0,0,1,6.08-9.2,28.7,28.7,0,0,1,9.2-6.16,29,29,0,0,1,11.44-2.24,29.9,29.9,0,0,1,12,2.2,30.43,30.43,0,0,1,9,6l-7.44,7.44a16.11,16.11,0,0,0-5.68-4,19.8,19.8,0,0,0-7.84-1.44,18.59,18.59,0,0,0-7.08,1.32,16.08,16.08,0,0,0-5.64,3.84,17.13,17.13,0,0,0-3.68,6,23.68,23.68,0,0,0,0,15.36,16.7,16.7,0,0,0,3.68,6,16.92,16.92,0,0,0,5.64,3.84,18.24,18.24,0,0,0,7.16,1.36,19.93,19.93,0,0,0,8.08-1.48,17.42,17.42,0,0,0,5.76-4L965,169a30.1,30.1,0,0,1-9.24,6A30.62,30.62,0,0,1,943.79,177.22Z"/><path class="cls-1" d="M999.79,177.22A29.3,29.3,0,0,1,988.31,175a28.89,28.89,0,0,1-17.8-26.88,28.38,28.38,0,0,1,2.24-11.32,29.5,29.5,0,0,1,6.2-9.24,27.48,27.48,0,0,1,9.24-6.16,31.59,31.59,0,0,1,23,0,27.48,27.48,0,0,1,9.24,6.16,29.5,29.5,0,0,1,6.2,9.28,29.93,29.93,0,0,1,0,22.72,29.91,29.91,0,0,1-6.16,9.28,27.63,27.63,0,0,1-9.24,6.2A29.5,29.5,0,0,1,999.79,177.22Zm-.16-10.08a18.08,18.08,0,0,0,9.4-2.4,16.58,16.58,0,0,0,6.28-6.68,21.2,21.2,0,0,0,2.24-10,21.72,21.72,0,0,0-1.28-7.6,17.39,17.39,0,0,0-3.68-6,16.59,16.59,0,0,0-5.64-3.88,18.69,18.69,0,0,0-7.32-1.36,17.93,17.93,0,0,0-9.28,2.36,16.58,16.58,0,0,0-6.28,6.6,20.48,20.48,0,0,0-2.28,9.84,22.4,22.4,0,0,0,1.28,7.76,16.81,16.81,0,0,0,3.64,6,16.59,16.59,0,0,0,5.68,3.88A18.47,18.47,0,0,0,999.63,167.14Z"/></svg>