<svg width="200" height="50" id="Layer_1" data-name="Layer 1" xmlns="http://www.w3.org/2000/svg" viewBox="0 0 1079.51 500"><defs><style>.cls-1{fill:#a9c9eb;}.cls-2{fill:#44509e;}.cls-3{fill:#2a3077;}</style></defs><path class="cls-1" d="M229.34,345v95.37a12.22,12.22,0,0,0,18.33,10.59l82.59-47.69a12.22,12.22,0,0,0,0-21.17l-82.59-47.68A12.22,12.22,0,0,0,229.34,345Z"/><path class="cls-1" d="M789.5,29.36,706.91,77a12.23,12.23,0,0,0,0,21.18L789.5,145.9a12.23,12.23,0,0,0,18.34-10.59V39.94A12.22,12.22,0,0,0,789.5,29.36Z"/><path class="cls-2" d="M379.3,369.39,235.06,286.21a12.23,12.23,0,0,1-6.12-10.51l-.54-84.14a12.23,12.23,0,0,1,18.35-10.66L463.5,306.43a12.22,12.22,0,0,1,0,21.15l-72,41.79A12.27,12.27,0,0,1,379.3,369.39Z"/><path class="cls-2" d="M656.65,113l144.24,83.18A12.23,12.23,0,0,1,807,206.69l.53,84.14a12.23,12.23,0,0,1-18.35,10.66L572.44,176a12.23,12.23,0,0,1,0-21.15l72-41.79A12.24,12.24,0,0,1,656.65,113Z"/><path class="cls-3" d="M807.68,441V354a12.23,12.23,0,0,0-6.21-10.64L246.61,30a12.23,12.23,0,0,0-18.24,10.7l.41,82.54a12.26,12.26,0,0,0,6.15,10.55L789.38,451.58A12.22,12.22,0,0,0,807.68,441Z"/></svg>