<svg  width="100" heigth="70" id="Layer_1" data-name="Layer 1" xmlns="http://www.w3.org/2000/svg" viewBox="0 0 230.37 230.37"><defs><style>.cls-1{fill:#fff;}</style></defs><polygon class="cls-1" points="200.47 67.28 176.2 109.44 176.2 109.44 164.06 130.53 164.06 130.53 151.92 151.61 151.92 151.61 151.92 151.61 139.78 172.69 139.78 172.69 127.64 193.77 115.5 214.86 102.73 193.77 115.5 172.69 115.5 172.69 127.64 151.61 127.64 151.61 127.64 151.61 139.78 130.53 139.78 130.53 151.92 109.44 151.92 109.44 151.92 109.44 164.06 88.36 139.78 88.36 127.64 109.44 127.64 109.44 115.5 130.53 114.86 130.53 115.5 130.53 102.73 151.61 102.73 151.61 90.59 172.69 90.59 172.69 78.45 151.61 78.45 151.61 90.59 130.53 90.59 130.53 102.73 109.44 102.73 109.44 115.5 88.36 115.5 88.36 90.59 88.36 90.59 88.36 78.45 109.44 66.31 130.53 66.31 130.53 54.17 109.44 66.31 88.36 66.31 88.36 78.45 67.28 102.73 67.28 127.64 67.28 200.47 67.28"/><polygon class="cls-1" points="224.75 25.11 212.61 46.19 139.78 46.19 115.5 46.19 66.31 46.19 66.31 46.19 42.03 88.36 42.03 88.36 29.89 67.28 29.89 67.28 42.03 46.19 42.03 46.19 17.76 46.19 5.62 25.11 224.75 25.11"/></svg>